<?xml version="1.0" encoding="UTF-8"?>
<svg height="600" width="800" xmlns="http://www.w3.org/2000/svg" xmlns:xlink="http://www.w3.org/1999/xlink">
    <g id="Notes" font-family="'LucidaGrande', 'Lucida Grande', sans-serif" font-size="13">
        <rect fill="white" height="600.0" width="800.0" x="0.0" y="0.0" />
        <g font-size="13">
            <text x="18.0" y="176.0">Small</text>
            <text x="18.0" y="376.0">Medium</text>
            <text x="18.0" y="576.0">Large</text>
        </g>
        <g font-size="9">
            <text x="250.0" y="30.0">Ultralight</text>
            <text x="450.0" y="30.0">Regular</text>
            <text x="650.0" y="30.0">Black</text>
            <text id="template-version" fill="#505050" text-anchor="end" x="785.0" y="575.0">Template v.3.0</text>
            <a href="https://wangchujiang.com/#/app">
                <text fill="#505050" text-anchor="end" x="785.0" y="590.0">https://wangchujiang.com/#/app</text>
            </a>
        </g>
    </g>
    <g id="Guides" stroke="rgb(39, 170, 225)" stroke-width="0.5">
        <path id="Capline-S" d="M18,76 l800,0" />
        <path id="H-reference" d="M85,145.755 L87.685,145.755 L113.369,79.287 L114.052,79.287 L114.052,76 L112.148,76 L85,145.755 Z M95.693,121.536 L130.996,121.536 L130.263,119.313 L96.474,119.313 L95.693,121.536 Z M139.15,145.755 L141.787,145.755 L114.638,76 L113.466,76 L113.466,79.287 L139.15,145.755 Z" stroke="none" />
        <path id="Baseline-S" d="M18,146 l800,0" />
        <path id="left-margin-Ultralight-S" d="M213.61,56 l0,110" />
        <path id="right-margin-Ultralight-S" d="M316.39,56 l0,110" />
        <path id="left-margin-Regular-S" d="M413.61,56 l0,110" />
        <path id="right-margin-Regular-S" d="M516.39,56 l0,110" />
        <path id="left-margin-Black-S" d="M613.61,56 l0,110" />
        <path id="right-margin-Black-S" d="M716.39,56 l0,110" />
        <path id="Capline-M" d="M18,276 l800,0" />
        <path id="Baseline-M" d="M18,346 l800,0" />
        <path id="Capline-L" d="M18,476 l800,0" />
        <path id="Baseline-L" d="M18,546 l800,0" />
    </g>
    <g id="Symbols">
        <g id="Ultralight-S">
            <path d="M273.409,124.799 C273.409,120.348 276.109,116.74 279.439,116.74 C282.769,116.74 285.469,120.348 285.469,124.799 C285.47,127.679 284.321,130.341 282.455,131.782 C280.589,133.222 278.289,133.222 276.423,131.782 C274.557,130.341 273.408,127.679 273.409,124.799 Z" />
            <path d="M244.638,124.799 C244.639,120.349 247.339,116.743 250.668,116.744 C253.998,116.744 256.697,120.349 256.699,124.799 C256.7,127.678 255.551,130.34 253.684,131.78 C251.818,133.221 249.518,133.221 247.652,131.78 C245.786,130.34 244.637,127.679 244.638,124.799 Z" />
            <path d="M299.95,92.567 C300.026,88.771 299.193,84.934 298.515,81.155 C298.282,79.854 297.81,78.597 297.345,77.363 C296.995,76.435 295.96,75.843 295.007,76.047 C294.39,76.178 293.836,76.306 293.298,76.483 C287.669,78.335 282.456,81.043 277.449,84.19 C276.776,84.612 275.798,84.765 274.985,84.705 C273.042,84.563 271.12,84.08 269.178,83.988 C264.372,83.76 259.575,83.906 254.812,84.739 C254.149,84.855 253.278,84.741 252.728,84.385 C247.267,80.852 241.586,77.828 235.196,76.131 C234.237,75.876 233.249,76.011 233.007,76.392 C232.859,76.625 232.725,76.866 232.651,77.126 C231.961,79.551 231.142,81.965 230.741,84.442 C230.263,87.399 229.803,90.445 230.03,93.398 C230.173,95.254 229.66,96.395 228.646,97.697 C225.243,102.069 223.711,107.093 223.617,112.603 C223.537,117.315 224.16,121.907 225.595,126.412 C227.793,133.314 232.038,138.494 238.428,141.864 C243.683,144.634 249.408,145.702 255.267,145.908 C260.548,146.093 265.839,145.936 271.126,145.966 C276.425,145.996 281.651,145.524 286.721,143.871 C291.795,142.218 296.185,139.551 299.592,135.357 C304.513,129.298 306.045,122.161 306.359,114.606 C306.6,108.829 305.423,103.394 302.04,98.668 C300.668,96.75 299.899,95.103 299.95,92.567 Z M289.748,136.835 C287.476,138.8 284.697,139.731 281.853,140.41 C276.272,141.744 270.589,142.076 264.888,141.827 C259.252,142.071 253.682,141.72 248.199,140.43 C244.154,139.478 240.462,137.879 237.888,134.407 C233.792,128.882 232.746,118.367 239.513,112.628 C241.239,111.165 243.163,110.237 245.438,110.092 C247.947,109.932 250.458,109.619 252.966,109.649 C259.293,109.724 265.617,110.039 271.942,110.086 C274.832,110.107 277.741,109.433 280.609,109.607 C283.215,109.765 285.955,110.245 288.321,111.293 C292.263,113.042 294.386,116.587 295.027,120.739 C295.982,126.913 294.722,132.533 289.748,136.835 Z" />
        </g>
        <g id="Regular-S">
            <path d="M473.409,124.799 C473.409,120.348 476.109,116.74 479.439,116.74 C482.769,116.74 485.469,120.348 485.469,124.799 C485.47,127.679 484.321,130.341 482.455,131.782 C480.589,133.222 478.289,133.222 476.423,131.782 C474.557,130.341 473.408,127.679 473.409,124.799 Z" />
            <path d="M444.638,124.799 C444.639,120.349 447.339,116.743 450.668,116.744 C453.998,116.744 456.697,120.349 456.699,124.799 C456.7,127.678 455.551,130.34 453.684,131.78 C451.818,133.221 449.518,133.221 447.652,131.78 C445.786,130.34 444.637,127.679 444.638,124.799 Z" />
            <path d="M499.95,92.567 C500.026,88.771 499.193,84.934 498.515,81.155 C498.282,79.854 497.81,78.597 497.345,77.363 C496.995,76.435 495.96,75.843 495.007,76.047 C494.39,76.178 493.836,76.306 493.298,76.483 C487.669,78.335 482.456,81.043 477.449,84.19 C476.776,84.612 475.798,84.765 474.985,84.705 C473.042,84.563 471.12,84.08 469.178,83.988 C464.372,83.76 459.575,83.906 454.812,84.739 C454.149,84.855 453.278,84.741 452.728,84.385 C447.267,80.852 441.586,77.828 435.196,76.131 C434.237,75.876 433.249,76.011 433.007,76.392 C432.859,76.625 432.725,76.866 432.651,77.126 C431.961,79.551 431.142,81.965 430.741,84.442 C430.263,87.399 429.803,90.445 430.03,93.398 C430.173,95.254 429.66,96.395 428.646,97.697 C425.243,102.069 423.711,107.093 423.617,112.603 C423.537,117.315 424.16,121.907 425.595,126.412 C427.793,133.314 432.038,138.494 438.428,141.864 C443.683,144.634 449.408,145.702 455.267,145.908 C460.548,146.093 465.839,145.936 471.126,145.966 C476.425,145.996 481.651,145.524 486.721,143.871 C491.795,142.218 496.185,139.551 499.592,135.357 C504.513,129.298 506.045,122.161 506.359,114.606 C506.6,108.829 505.423,103.394 502.04,98.668 C500.668,96.75 499.899,95.103 499.95,92.567 Z M489.748,136.835 C487.476,138.8 484.697,139.731 481.853,140.41 C476.272,141.744 470.589,142.076 464.888,141.827 C459.252,142.071 453.682,141.72 448.199,140.43 C444.154,139.478 440.462,137.879 437.888,134.407 C433.793,128.882 432.746,118.367 439.513,112.628 C441.239,111.165 443.163,110.237 445.438,110.092 C447.947,109.932 450.458,109.619 452.966,109.649 C459.293,109.724 465.617,110.039 471.942,110.086 C474.832,110.107 477.741,109.433 480.609,109.607 C483.215,109.765 485.955,110.245 488.321,111.293 C492.263,113.042 494.386,116.587 495.027,120.739 C495.982,126.913 494.722,132.533 489.748,136.835 Z" />
        </g>
        <g id="Black-S">
            <path d="M673.409,124.799 C673.409,120.348 676.109,116.74 679.439,116.74 C682.769,116.74 685.469,120.348 685.469,124.799 C685.47,127.679 684.321,130.341 682.455,131.782 C680.589,133.222 678.289,133.222 676.423,131.782 C674.557,130.341 673.408,127.679 673.409,124.799 Z" />
            <path d="M644.638,124.799 C644.639,120.349 647.339,116.743 650.668,116.744 C653.998,116.744 656.697,120.349 656.699,124.799 C656.7,127.678 655.551,130.34 653.684,131.78 C651.818,133.221 649.518,133.221 647.652,131.78 C645.786,130.34 644.637,127.679 644.638,124.799 Z" />
            <path d="M699.95,92.567 C700.026,88.771 699.193,84.934 698.515,81.155 C698.282,79.854 697.81,78.597 697.345,77.363 C696.995,76.435 695.96,75.843 695.007,76.047 C694.39,76.178 693.836,76.306 693.298,76.483 C687.669,78.335 682.456,81.043 677.449,84.19 C676.776,84.612 675.798,84.765 674.985,84.705 C673.042,84.563 671.12,84.08 669.178,83.988 C664.372,83.76 659.575,83.906 654.812,84.739 C654.149,84.855 653.278,84.741 652.728,84.385 C647.267,80.852 641.586,77.828 635.196,76.131 C634.237,75.876 633.249,76.011 633.007,76.392 C632.859,76.625 632.725,76.866 632.651,77.126 C631.961,79.551 631.142,81.965 630.741,84.442 C630.263,87.399 629.803,90.445 630.03,93.398 C630.173,95.254 629.66,96.395 628.646,97.697 C625.243,102.069 623.711,107.093 623.617,112.603 C623.537,117.315 624.16,121.907 625.595,126.412 C627.793,133.314 632.038,138.494 638.428,141.864 C643.683,144.634 649.408,145.702 655.267,145.908 C660.548,146.093 665.839,145.936 671.126,145.966 C676.425,145.996 681.651,145.524 686.721,143.871 C691.795,142.218 696.185,139.551 699.592,135.357 C704.513,129.298 706.045,122.161 706.359,114.606 C706.6,108.829 705.423,103.394 702.04,98.668 C700.668,96.75 699.899,95.103 699.95,92.567 Z M689.748,136.835 C687.476,138.8 684.697,139.731 681.853,140.41 C676.272,141.744 670.589,142.076 664.888,141.827 C659.252,142.071 653.682,141.72 648.199,140.43 C644.154,139.478 640.462,137.879 637.888,134.407 C633.792,128.882 632.746,118.367 639.513,112.628 C641.239,111.165 643.163,110.237 645.438,110.092 C647.947,109.932 650.458,109.619 652.966,109.649 C659.293,109.724 665.617,110.039 671.942,110.086 C674.832,110.107 677.741,109.433 680.609,109.607 C683.215,109.765 685.955,110.245 688.321,111.293 C692.263,113.042 694.386,116.587 695.027,120.739 C695.982,126.913 694.722,132.533 689.748,136.835 Z" />
        </g>
    </g>
</svg>