<?xml version="1.0" encoding="UTF-8"?>
<svg height="600" width="800" xmlns="http://www.w3.org/2000/svg" xmlns:xlink="http://www.w3.org/1999/xlink">
    <style>
        
    </style>
    <g id="Notes" font-family="'LucidaGrande', 'Lucida Grande', sans-serif" font-size="13">
        <rect fill="white" height="600.0" width="800.0" x="0.0" y="0.0" />
        <g font-size="13">
            <text x="18.0" y="176.0">Small</text>
            <text x="18.0" y="376.0">Medium</text>
            <text x="18.0" y="576.0">Large</text>
        </g>
        <g font-size="9">
            <text x="250.0" y="30.0">Ultralight</text>
            <text x="450.0" y="30.0">Regular</text>
            <text x="650.0" y="30.0">Black</text>
            <text id="template-version" fill="#505050" text-anchor="end" x="785.0" y="575.0">Template v.3.0</text>
            <a href="https://github.com/swhitty/SwiftDraw">
                <text fill="#505050" text-anchor="end" x="785.0" y="590.0">https://github.com/swhitty/SwiftDraw</text>
            </a>
        </g>
    </g>
    <g id="Guides" stroke="rgb(39, 170, 225)" stroke-width="0.5">
        <path id="Capline-S" d="M18,76 l800,0" />
        <path id="H-reference" d="M85,145.8 L87.7,145.8 L113.4,79.3 L114.1,79.3 L114.1,76 L112.1,76 L85,145.8 Z M95.7,121.5 L131,121.5 L130.3,119.3 L96.5,119.3 L95.7,121.5 Z M139.1,145.8 L141.8,145.8 L114.6,76 L113.5,76 L113.5,79.3 L139.1,145.8 Z" stroke="none" />
        <path id="Baseline-S" d="M18,146 l800,0" />
        <path id="left-margin-Ultralight-S" d="M220,56 l0,110" />
        <path id="right-margin-Ultralight-S" d="M310,56 l0,110" />
        <path id="left-margin-Regular-S" d="M420,56 l0,110" />
        <path id="right-margin-Regular-S" d="M510,56 l0,110" />
        <path id="left-margin-Black-S" d="M620,56 l0,110" />
        <path id="right-margin-Black-S" d="M710,56 l0,110" />
        <path id="Capline-M" d="M18,276 l800,0" />
        <path id="Baseline-M" d="M18,346 l800,0" />
        <path id="Capline-L" d="M18,476 l800,0" />
        <path id="Baseline-L" d="M18,546 l800,0" />
    </g>
    <g id="Symbols">
        <g id="Ultralight-S">
            <path class="monochrome-0 multicolor-0:tintColor hierarchical-0:primary" d="M232.4,113.4 C233.8,113.4 234.9,112.4 234.9,111 C234.9,109.6 233.8,108.6 232.4,108.6 C231.1,108.6 230,109.6 230,111 C230,112.4 231.1,113.4 232.4,113.4 Z M241.4,91.6 C242.8,91.6 243.8,90.5 243.8,89.1 C243.8,87.8 242.8,86.7 241.4,86.7 C240,86.7 239,87.8 239,89.1 C239,90.5 240,91.6 241.4,91.6 Z M263.2,83.9 C265.4,83.9 267.1,82.3 267.1,80 C267.1,77.7 265.4,76 263.2,76 C260.9,76 259.2,77.7 259.2,80 C259.2,82.3 260.9,83.9 263.2,83.9 Z M283.3,93.8 C286.1,93.8 288.2,91.7 288.2,88.9 C288.2,86.2 286.1,84 283.3,84 C280.6,84 278.4,86.2 278.4,88.9 C278.4,91.7 280.6,93.8 283.3,93.8 Z M293.8,117.2 C297.3,117.2 300,114.5 300,111 C300,107.4 297.3,104.7 293.8,104.7 C290.2,104.7 287.5,107.4 287.5,111 C287.5,114.5 290.2,117.2 293.8,117.2 Z M283.3,138 C286.1,138 288.2,135.8 288.2,133.1 C288.2,130.3 286.1,128.2 283.3,128.2 C280.6,128.2 278.4,130.3 278.4,133.1 C278.4,135.8 280.6,138 283.3,138 Z M263.2,146 C265.4,146 267.1,144.3 267.1,142 C267.1,139.7 265.4,138.1 263.2,138.1 C260.9,138.1 259.2,139.7 259.2,142 C259.2,144.3 260.9,146 263.2,146 Z M241.4,135.3 C242.8,135.3 243.8,134.2 243.8,132.9 C243.8,131.4 242.8,130.4 241.4,130.4 C240,130.4 239,131.4 239,132.9 C239,134.2 240,135.3 241.4,135.3 Z" />
            <path class="monochrome-1 multicolor-1:tintColor hierarchical-1:primary" d="M263.2,128.6 C272.8,128.6 280.7,120.7 280.7,111 C280.7,101.3 272.8,93.4 263.2,93.4 C253.5,93.4 245.7,101.3 245.7,111 C245.7,120.7 253.5,128.6 263.2,128.6 Z M263.2,126.6 L263.2,95.4 C271.7,95.4 278.8,102.4 278.8,111 C278.8,119.6 271.7,126.6 263.2,126.6 Z" />
            <path d="M263.9,104.2 Z" />
        </g>
        <g id="Regular-S">
            <path class="monochrome-0 multicolor-0:tintColor hierarchical-0:primary" d="M433,114 C434.6,114 436,112.7 436,111 C436,109.3 434.6,108 433,108 C431.3,108 430,109.3 430,111 C430,112.7 431.3,114 433,114 Z M441.8,92.5 C443.5,92.5 444.8,91.1 444.8,89.5 C444.8,87.8 443.5,86.5 441.8,86.5 C440.2,86.5 438.9,87.8 438.9,89.5 C438.9,91.1 440.2,92.5 441.8,92.5 Z M463.2,85 C465.6,85 467.7,83 467.7,80.5 C467.7,78 465.6,76 463.2,76 C460.7,76 458.7,78 458.7,80.5 C458.7,83 460.7,85 463.2,85 Z M483,94.7 C486,94.7 488.4,92.3 488.4,89.3 C488.4,86.3 486,83.9 483,83.9 C480.1,83.9 477.6,86.3 477.6,89.3 C477.6,92.3 480.1,94.7 483,94.7 Z M493.3,117.8 C497,117.8 500,114.8 500,111 C500,107.2 497,104.2 493.3,104.2 C489.5,104.2 486.5,107.2 486.5,111 C486.5,114.8 489.5,117.8 493.3,117.8 Z M483,138.1 C486,138.1 488.4,135.7 488.4,132.7 C488.4,129.7 486,127.3 483,127.3 C480.1,127.3 477.6,129.7 477.6,132.7 C477.6,135.7 480.1,138.1 483,138.1 Z M463.2,146 C465.6,146 467.7,144 467.7,141.5 C467.7,139 465.6,137 463.2,137 C460.7,137 458.7,139 458.7,141.5 C458.7,144 460.7,146 463.2,146 Z M441.8,135.4 C443.5,135.4 444.8,134.1 444.8,132.5 C444.8,130.8 443.5,129.5 441.8,129.5 C440.2,129.5 438.9,130.8 438.9,132.5 C438.9,134.1 440.2,135.4 441.8,135.4 Z" />
            <path class="monochrome-1 multicolor-1:tintColor hierarchical-1:primary" d="M463.2,128.3 C472.7,128.3 480.4,120.6 480.4,111 C480.4,101.4 472.7,93.7 463.2,93.7 C453.7,93.7 446,101.4 446,111 C446,120.6 453.7,128.3 463.2,128.3 Z M463.2,123.3 L463.2,98.7 C469.9,98.7 475.4,104.2 475.4,111 C475.4,117.8 469.9,123.3 463.2,123.3 Z" />
            <path d="M463.3,109.6 Z" />
        </g>
        <g id="Black-S">
            <path class="monochrome-0 multicolor-0:tintColor hierarchical-0:primary" d="M633.5,114.5 C635.4,114.5 637,113 637,111 C637,109 635.4,107.5 633.5,107.5 C631.6,107.5 630,109 630,111 C630,113 631.6,114.5 633.5,114.5 Z M642.2,93.4 C644.2,93.4 645.7,91.8 645.7,89.9 C645.7,87.9 644.2,86.3 642.2,86.3 C640.3,86.3 638.7,87.9 638.7,89.9 C638.7,91.8 640.3,93.4 642.2,93.4 Z M663.2,86 C666,86 668.2,83.8 668.2,81 C668.2,78.3 666,76 663.2,76 C660.4,76 658.2,78.3 658.2,81 C658.2,83.8 660.4,86 663.2,86 Z M682.7,95.5 C685.9,95.5 688.6,92.9 688.6,89.7 C688.6,86.5 685.9,83.7 682.7,83.7 C679.5,83.7 676.8,86.5 676.8,89.7 C676.8,92.9 679.5,95.5 682.7,95.5 Z M692.8,118.3 C696.8,118.3 700,115 700,111 C700,107 696.8,103.7 692.8,103.7 C688.8,103.7 685.6,107 685.6,111 C685.6,115 688.8,118.3 692.8,118.3 Z M682.7,138.3 C685.9,138.3 688.6,135.5 688.6,132.3 C688.6,129.1 685.9,126.5 682.7,126.5 C679.5,126.5 676.8,129.1 676.8,132.3 C676.8,135.5 679.5,138.3 682.7,138.3 Z M663.2,146 C666,146 668.2,143.7 668.2,141 C668.2,138.2 666,136 663.2,136 C660.4,136 658.2,138.2 658.2,141 C658.2,143.7 660.4,146 663.2,146 Z M642.2,135.6 C644.2,135.6 645.7,134 645.7,132.1 C645.7,130.1 644.2,128.6 642.2,128.6 C640.3,128.6 638.7,130.1 638.7,132.1 C638.7,134 640.3,135.6 642.2,135.6 Z" />
            <path class="monochrome-1 multicolor-1:tintColor hierarchical-1:primary" d="M663.2,129.2 C673.2,129.2 681.3,121 681.3,111 C681.3,101 673.2,92.8 663.2,92.8 C653.2,92.8 645.1,101 645.1,111 C645.1,121 653.2,129.2 663.2,129.2 Z M663.2,121.8 L663.2,100.2 C669.2,100.2 674,105 674,111 C674,117 669.2,121.8 663.2,121.8 Z" />
            <path d="M663.3,110.6 Z" />
        </g>
    </g>
</svg>