<?xml version="1.0" encoding="UTF-8"?>
<svg height="600" width="800" xmlns="http://www.w3.org/2000/svg" xmlns:xlink="http://www.w3.org/1999/xlink">
    <style>
        
    </style>
    <g id="Notes" font-family="'LucidaGrande', 'Lucida Grande', sans-serif" font-size="13">
        <rect fill="white" height="600.0" width="800.0" x="0.0" y="0.0" />
        <g font-size="13">
            <text x="18.0" y="176.0">Small</text>
            <text x="18.0" y="376.0">Medium</text>
            <text x="18.0" y="576.0">Large</text>
        </g>
        <g font-size="9">
            <text x="250.0" y="30.0">Ultralight</text>
            <text x="450.0" y="30.0">Regular</text>
            <text x="650.0" y="30.0">Black</text>
            <text id="template-version" fill="#505050" text-anchor="end" x="785.0" y="575.0">Template v.3.0</text>
            <a href="https://github.com/swhitty/SwiftDraw">
                <text fill="#505050" text-anchor="end" x="785.0" y="590.0">https://github.com/swhitty/SwiftDraw</text>
            </a>
        </g>
    </g>
    <g id="Guides" stroke="rgb(39, 170, 225)" stroke-width="0.5">
        <path id="Capline-S" d="M18,76 l800,0" />
        <path id="H-reference" d="M85,145.8 L87.7,145.8 L113.4,79.3 L114.1,79.3 L114.1,76 L112.1,76 L85,145.8 Z M95.7,121.5 L131,121.5 L130.3,119.3 L96.5,119.3 L95.7,121.5 Z M139.1,145.8 L141.8,145.8 L114.6,76 L113.5,76 L113.5,79.3 L139.1,145.8 Z" stroke="none" />
        <path id="Baseline-S" d="M18,146 l800,0" />
        <path id="left-margin-Ultralight-S" d="M220,56 l0,110" />
        <path id="right-margin-Ultralight-S" d="M310,56 l0,110" />
        <path id="left-margin-Regular-S" d="M421,56 l0,110" />
        <path id="right-margin-Regular-S" d="M509,56 l0,110" />
        <path id="left-margin-Black-S" d="M620,56 l0,110" />
        <path id="right-margin-Black-S" d="M710,56 l0,110" />
        <path id="Capline-M" d="M18,276 l800,0" />
        <path id="Baseline-M" d="M18,346 l800,0" />
        <path id="Capline-L" d="M18,476 l800,0" />
        <path id="Baseline-L" d="M18,546 l800,0" />
    </g>
    <g id="Symbols">
        <g id="Ultralight-S">
            <path class="monochrome-0 multicolor-0:tintColor hierarchical-0:secondary" d="M297.2,103.3 C298.8,103.3 300,102.1 300,100.5 C300,98.9 298.8,97.7 297.2,97.7 C295.6,97.7 294.3,98.9 294.3,100.5 C294.3,102.1 295.6,103.3 297.2,103.3 Z M284.9,87.8 C286.4,87.8 287.7,86.6 287.7,85.1 C287.7,83.5 286.4,82.2 284.9,82.2 C283.3,82.2 282,83.5 282,85.1 C282,86.6 283.3,87.8 284.9,87.8 Z M265,81.7 C266.6,81.7 267.9,80.4 267.9,78.9 C267.9,77.2 266.6,76 265,76 C263.4,76 262.1,77.2 262.1,78.9 C262.1,80.4 263.4,81.7 265,81.7 Z M245.1,87.8 C246.7,87.8 247.9,86.6 247.9,85.1 C247.9,83.5 246.7,82.2 245.1,82.2 C243.6,82.2 242.3,83.5 242.3,85.1 C242.3,86.6 243.6,87.8 245.1,87.8 Z M232.8,103.3 C234.4,103.3 235.6,102.1 235.6,100.5 C235.6,98.9 234.4,97.7 232.8,97.7 C231.2,97.7 230,98.9 230,100.5 C230,102.1 231.2,103.3 232.8,103.3 Z" />
            <path class="monochrome-1 multicolor-1:tintColor hierarchical-1:primary" d="M265,146 C268,146 269.5,144.2 270.9,141.8 L285.6,117.3 C286,116.7 285.9,116 285.2,115.6 C284.6,115.2 284,115.5 283.5,115.9 L261.1,134.9 C259.5,136.3 258.8,137.8 258.8,139.9 C258.8,143.3 261.5,146 265,146 Z" />
        </g>
        <g id="Regular-S">
            <path class="monochrome-0 multicolor-0:tintColor hierarchical-0:secondary" d="M491.8,103.9 C494.4,103.9 496.5,101.7 496.5,98.9 C496.5,96.1 494.4,93.8 491.8,93.8 C489.2,93.8 487,96.1 487,98.9 C487,101.7 489.2,103.9 491.8,103.9 Z M480.4,91 C483.1,91 485.2,88.8 485.2,86 C485.2,83.2 483.1,80.9 480.4,80.9 C477.8,80.9 475.7,83.2 475.7,86 C475.7,88.8 477.8,91 480.4,91 Z M465,86.2 C467.6,86.2 469.8,83.9 469.8,81.1 C469.8,78.3 467.6,76 465,76 C462.4,76 460.2,78.3 460.2,81.1 C460.2,83.9 462.4,86.2 465,86.2 Z M449.6,91 C452.2,91 454.3,88.8 454.3,86 C454.3,83.2 452.2,80.9 449.6,80.9 C446.9,80.9 444.8,83.2 444.8,86 C444.8,88.8 446.9,91 449.6,91 Z M438.2,103.9 C440.8,103.9 443,101.7 443,98.9 C443,96.1 440.8,93.8 438.2,93.8 C435.6,93.8 433.5,96.1 433.5,98.9 C433.5,101.7 435.6,103.9 438.2,103.9 Z" />
            <path class="monochrome-1 multicolor-1:tintColor hierarchical-1:primary" d="M465,146 C469.8,146 472.2,142.7 473.9,138.3 L484.5,112.4 C485.1,110.8 484.7,109.3 483.7,108.7 C482.8,108 481.4,108 480.2,109.2 L460.7,128.4 C457.5,131.5 456.4,133.7 456.4,137 C456.4,141.9 460.2,146 465,146 Z" />
        </g>
        <g id="Black-S">
            <path class="monochrome-0 multicolor-0:tintColor hierarchical-0:secondary" d="M692.8,112.7 C696.8,112.7 700,109.4 700,105.3 C700,101.3 696.8,98 692.8,98 C688.9,98 685.6,101.3 685.6,105.3 C685.6,109.4 688.9,112.7 692.8,112.7 Z M682.7,96.5 C686.7,96.5 689.9,93.2 689.9,89.1 C689.9,85 686.7,81.7 682.7,81.7 C678.7,81.7 675.5,85 675.5,89.1 C675.5,93.2 678.7,96.5 682.7,96.5 Z M665,90.8 C669,90.8 672.2,87.4 672.2,83.4 C672.2,79.3 669,76 665,76 C661,76 657.8,79.3 657.8,83.4 C657.8,87.4 661,90.8 665,90.8 Z M647.3,96.5 C651.3,96.5 654.5,93.2 654.5,89.1 C654.5,85 651.3,81.7 647.3,81.7 C643.3,81.7 640.1,85 640.1,89.1 C640.1,93.2 643.3,96.5 647.3,96.5 Z M637.2,112.7 C641.1,112.7 644.4,109.4 644.4,105.3 C644.4,101.3 641.1,98 637.2,98 C633.2,98 630,101.3 630,105.3 C630,109.4 633.2,112.7 637.2,112.7 Z" />
            <path class="monochrome-1 multicolor-1:tintColor hierarchical-1:primary" d="M665,146 C670.2,146 672.9,143.3 674.7,138.9 L681.8,121.6 C683.1,118.6 682.5,116.4 681.2,115.2 C679.7,113.9 677.3,113.9 675.5,115.3 L662.1,125.8 C657.2,129.7 655.2,131.8 655.2,136 C655.2,141.5 659.5,146 665,146 Z" />
        </g>
    </g>
</svg>